<svg width="10" height="6" viewBox="0 0 10 6" fill="none" xmlns="http://www.w3.org/2000/svg">
<path fill-rule="evenodd" clip-rule="evenodd" d="M0.11017 0.11017C0.145005 0.0752477 0.186386 0.0475405 0.231945 0.0286356C0.277504 0.00973079 0.326345 0 0.37567 0C0.424996 0 0.473837 0.00973079 0.519396 0.0286356C0.564955 0.0475405 0.606336 0.0752477 0.64117 0.11017L4.87567 4.34542L9.11017 0.11017C9.14504 0.0753042 9.18643 0.0476469 9.23198 0.0287776C9.27754 0.00990828 9.32636 0.000196338 9.37567 0.000196338C9.42498 0.000196338 9.4738 0.00990828 9.51936 0.0287776C9.56491 0.0476469 9.6063 0.0753042 9.64117 0.11017C9.67604 0.145036 9.70369 0.186428 9.72256 0.231982C9.74143 0.277537 9.75114 0.326362 9.75114 0.37567C9.75114 0.424978 9.74143 0.473803 9.72256 0.519358C9.70369 0.564913 9.67604 0.606304 9.64117 0.64117L5.14117 5.14117C5.10634 5.17609 5.06495 5.2038 5.0194 5.2227C4.97384 5.24161 4.925 5.25134 4.87567 5.25134C4.82634 5.25134 4.7775 5.24161 4.73195 5.2227C4.68639 5.2038 4.645 5.17609 4.61017 5.14117L0.11017 0.64117C0.075248 0.606336 0.0475408 0.564954 0.028636 0.519396C0.00973114 0.473837 0 0.424996 0 0.37567C0 0.326345 0.00973114 0.277504 0.028636 0.231945C0.0475408 0.186386 0.075248 0.145004 0.11017 0.11017V0.11017Z" fill="#E9E9E1"/>
</svg>
