<svg width="32" height="32" viewBox="0 0 32 32" fill="none" xmlns="http://www.w3.org/2000/svg">
<path d="M14.5 18.9959V22.5009C14.5 22.6335 14.4473 22.7607 14.3536 22.8544C14.2598 22.9482 14.1326 23.0009 14 23.0009H10C9.86739 23.0009 9.74022 22.9482 9.64645 22.8544C9.55268 22.7607 9.5 22.6335 9.5 22.5009V15.5009C9.49988 15.4352 9.51272 15.3701 9.53777 15.3094C9.56282 15.2486 9.5996 15.1934 9.646 15.1469L15.646 9.14689C15.6924 9.10033 15.7476 9.06339 15.8084 9.03818C15.8691 9.01297 15.9342 9 16 9C16.0658 9 16.1309 9.01297 16.1916 9.03818C16.2524 9.06339 16.3076 9.10033 16.354 9.14689L22.354 15.1469C22.4004 15.1934 22.4372 15.2486 22.4622 15.3094C22.4873 15.3701 22.5001 15.4352 22.5 15.5009V22.5009C22.5 22.6335 22.4473 22.7607 22.3536 22.8544C22.2598 22.9482 22.1326 23.0009 22 23.0009H18C17.8674 23.0009 17.7402 22.9482 17.6464 22.8544C17.5527 22.7607 17.5 22.6335 17.5 22.5009V19.0009C17.5 18.7509 17.25 18.5009 17 18.5009H15C14.75 18.5009 14.5 18.7509 14.5 18.9959Z" fill="#8C8C8C"/>
<path fill-rule="evenodd" clip-rule="evenodd" d="M21 10.5V14L19 12V10.5C19 10.3674 19.0527 10.2402 19.1464 10.1464C19.2402 10.0527 19.3674 10 19.5 10H20.5C20.6326 10 20.7598 10.0527 20.8536 10.1464C20.9473 10.2402 21 10.3674 21 10.5Z" fill="#8C8C8C"/>
</svg>
