<svg width="80" height="80" viewBox="0 0 80 80" fill="none" xmlns="http://www.w3.org/2000/svg">
<mask id="mask0_1331_35291" style="mask-type:alpha" maskUnits="userSpaceOnUse" x="0" y="0" width="43" height="80">
<path d="M37.2545 79.9061C32.0141 79.5454 26.8959 78.1561 22.1924 75.8175C17.4888 73.4788 13.2919 70.2367 9.84138 66.2761C6.39082 62.3155 3.75414 57.714 2.08189 52.7344C0.409641 47.7548 -0.265432 42.4946 0.0952164 37.2542C0.455865 32.0137 1.84517 26.8955 4.18381 22.192C6.52245 17.4884 9.76463 13.2916 13.7252 9.84099C17.6858 6.39043 22.2873 3.75376 27.2669 2.08151C32.2464 0.409258 37.5066 -0.265814 42.7471 0.0948351L41.6578 15.9228C38.4959 15.7052 35.3221 16.1125 32.3176 17.1215C29.3131 18.1305 26.5367 19.7213 24.147 21.8033C21.7574 23.8852 19.8011 26.4175 18.3901 29.2554C16.979 32.0934 16.1408 35.1815 15.9232 38.3434C15.7056 41.5054 16.1129 44.6792 17.1219 47.6837C18.1308 50.6882 19.7217 53.4645 21.8037 55.8542C23.8856 58.2439 26.4179 60.2001 29.2558 61.6112C32.0938 63.0222 35.1819 63.8605 38.3438 64.0781L37.2545 79.9061Z" fill="#40EF91"/>
</mask>
<g mask="url(#mask0_1331_35291)">
<path d="M40 0C45.2529 6.26399e-08 50.4543 1.03463 55.3073 3.04482C60.1604 5.05501 64.5699 8.00139 68.2843 11.7157C71.9986 15.4301 74.945 19.8396 76.9552 24.6927C78.9654 29.5457 80 34.7471 80 40C80 45.2529 78.9654 50.4543 76.9552 55.3073C74.945 60.1604 71.9986 64.5699 68.2843 68.2843C64.5699 71.9986 60.1604 74.945 55.3073 76.9552C50.4543 78.9654 45.2529 80 40 80L40 77.944C44.9829 77.944 49.917 76.9626 54.5205 75.0557C59.1241 73.1488 63.307 70.3539 66.8305 66.8305C70.3539 63.307 73.1488 59.1241 75.0557 54.5205C76.9625 49.917 77.944 44.9829 77.944 40C77.944 35.0171 76.9626 30.083 75.0557 25.4795C73.1488 20.8759 70.3539 16.693 66.8305 13.1695C63.307 9.64612 59.1241 6.85118 54.5205 4.94432C49.917 3.03745 44.9829 2.056 40 2.056L40 0Z" fill="#FFDE14"/>
</g>
<g clip-path="url(#clip0_1331_35291)">
<path fill-rule="evenodd" clip-rule="evenodd" d="M38.9327 21V36.3966C38.9327 39.1665 37.3402 41.7264 34.7525 43.1153C29.6395 45.8595 21.4772 50.2061 20 50.7882C20.0624 49.0644 22.5783 47.185 25.4999 45.0026C28.0063 43.1304 30.8113 41.035 32.622 38.6236C35.6605 34.1709 36.2459 29.5943 36.678 26.2166C37.0509 23.3012 37.3096 21.2788 38.9327 21ZM41.0672 21V36.3966C41.0672 39.1665 42.6598 41.7264 45.2475 43.1153C50.361 45.8595 58.5228 50.2061 60 50.7886C59.9376 49.0648 57.4217 47.1855 54.5001 45.003C51.9937 43.1308 49.1886 41.0355 47.378 38.624C44.3395 34.1711 43.7541 29.5945 43.322 26.2166C42.9491 23.3012 42.6904 21.2788 41.0672 21ZM35.8101 45.2305L21.3443 52.8133H21.3438C22.4051 53.9843 24.4324 53.1969 27.3549 52.0618C30.7414 50.7466 35.3299 48.9645 41.0104 49.2214C44.1683 49.4933 47.5187 50.7228 50.5124 51.8215C54.0013 53.1018 57.0057 54.2044 58.6559 53.4059C57.3814 52.5018 49.2777 48.0622 44.181 45.2915C41.602 43.8895 38.4127 43.8664 35.8101 45.2305Z" fill="#FFDE14"/>
</g>
<defs>
<clipPath id="clip0_1331_35291">
<rect width="40" height="33" fill="white" transform="translate(20 21)"/>
</clipPath>
</defs>
</svg>
