<svg width="77" height="16" viewBox="0 0 77 16" fill="none" xmlns="http://www.w3.org/2000/svg">
<path d="M49.0824 0.247379V6.44763C49.0825 6.46529 49.0788 6.48275 49.0714 6.49878C49.064 6.51481 49.0531 6.52902 49.0397 6.5404L45.6612 9.44644C45.6389 9.46573 45.6105 9.47646 45.581 9.47671H40.1288L39.8827 9.72211V15.7487L39.6366 15.9947H37.1944L36.9484 15.7487V9.72211L36.703 9.47407H31.2527C31.2232 9.47383 31.1948 9.4631 31.1725 9.44381L27.7986 6.54237C27.7852 6.53078 27.7745 6.51643 27.7671 6.50031C27.7597 6.48419 27.7559 6.46668 27.7559 6.44895V0.247379L28.0019 0H30.4395L30.6849 0.246063V6.54237H46.1461V0.247379L46.3915 0H48.8344L49.0824 0.247379Z" fill="#FFDE14"/>
<path d="M26.2791 0H23.8362L23.5908 0.246063V3.79095L19.0419 6.53251H12.6785L8.12962 3.79095V0.247379L7.88422 0H5.44136L5.19727 0.247379V5.24758C5.1972 5.26884 5.20262 5.28975 5.21299 5.30831C5.22336 5.32686 5.23834 5.34243 5.25648 5.35351L9.30994 7.79111V8.2135L5.25714 10.6478C5.239 10.6589 5.22402 10.6745 5.21365 10.693C5.20328 10.7116 5.19786 10.7325 5.19792 10.7537V15.7539L5.44399 16H7.88619L8.1316 15.7539V12.2031L12.6805 9.46223H19.0347L23.5829 12.2031V15.7487L23.829 15.9947H26.2712L26.5172 15.7487V10.7485C26.5172 10.7273 26.5117 10.7065 26.5013 10.6881C26.491 10.6697 26.4761 10.6542 26.458 10.6432L22.4092 8.20889V7.78782L26.4672 5.34956C26.4854 5.33848 26.5003 5.32291 26.5107 5.30436C26.5211 5.28581 26.5265 5.26489 26.5264 5.24364V0.243431L26.2791 0Z" fill="#FFDE14"/>
<path d="M68.7001 0H50.552L50.3066 0.246063V2.68629L50.552 2.93236H68.7001V3.34158L50.3843 10.5643C50.3613 10.5734 50.3417 10.5891 50.3278 10.6095C50.314 10.63 50.3066 10.6541 50.3066 10.6787V15.7487L50.552 15.9947H71.3871L71.6325 15.7487V13.3084L71.3871 13.0624H53.239V12.6485L71.5549 5.42588C71.5778 5.41678 71.5974 5.401 71.6113 5.38058C71.6251 5.36017 71.6325 5.33607 71.6325 5.3114V0.245405L71.3871 0H68.7001Z" fill="#FFDE14"/>
<path d="M74.8395 0.41276H74.379V1.95098H74.004V0.41276H73.5566V0.101562H74.8382L74.8395 0.41276Z" fill="#FFDE14"/>
<path d="M75.5409 0.101562L75.8903 1.43912L76.2383 0.101562H76.7265V1.95098H76.3515V1.4503L76.3857 0.679218L76.0159 1.95098H75.762L75.3922 0.679218L75.4264 1.4503V1.95098H75.0527V0.101562H75.5409Z" fill="#FFDE14"/>
</svg>
